<?xml version="1.0" encoding="UTF-8" standalone="no"?>
<svg
   xmlns:osb="http://www.openswatchbook.org/uri/2009/osb"
   xmlns:dc="http://purl.org/dc/elements/1.1/"
   xmlns:cc="http://creativecommons.org/ns#"
   xmlns:rdf="http://www.w3.org/1999/02/22-rdf-syntax-ns#"
   xmlns:svg="http://www.w3.org/2000/svg"
   xmlns="http://www.w3.org/2000/svg"
   xmlns:sodipodi="http://sodipodi.sourceforge.net/DTD/sodipodi-0.dtd"
   xmlns:inkscape="http://www.inkscape.org/namespaces/inkscape"
   width="1000"
   height="1000"
   viewBox="0 0 264.58333 264.58334"
   version="1.1"
   id="svg112"
   inkscape:version="1.0.2 (e86c870879, 2021-01-15)"
   sodipodi:docname="azocarone.svg"
   inkscape:export-filename="/home/jazomar/Documentos/Perfil/_images/logos/export.png"
   inkscape:export-xdpi="7.6799998"
   inkscape:export-ydpi="7.6799998">
  <defs
     id="defs106">
    <linearGradient
       id="linearGradient2840"
       osb:paint="solid">
      <stop
         style="stop-color:#ffffff;stop-opacity:1;"
         offset="0"
         id="stop2838" />
    </linearGradient>
    <linearGradient
       id="linearGradient3060"
       osb:paint="solid">
      <stop
         style="stop-color:#ffffff;stop-opacity:1;"
         offset="0"
         id="stop3058" />
    </linearGradient>
    <filter
       inkscape:collect="always"
       style="color-interpolation-filters:sRGB"
       id="filter1805"
       x="-0.00077347795"
       width="1.0027481"
       y="-0.000645892"
       height="0.99897486">
      <feGaussianBlur
         inkscape:collect="always"
         stdDeviation="0.011694264"
         id="feGaussianBlur1807" />
    </filter>
  </defs>
  <sodipodi:namedview
     id="base"
     pagecolor="#ffffff"
     bordercolor="#666666"
     borderopacity="1.0"
     inkscape:pageopacity="0"
     inkscape:pageshadow="2"
     inkscape:zoom="0.48167507"
     inkscape:cx="500"
     inkscape:cy="500"
     inkscape:document-units="px"
     inkscape:current-layer="layer1"
     inkscape:document-rotation="0"
     showgrid="false"
     units="px"
     inkscape:window-width="1366"
     inkscape:window-height="693"
     inkscape:window-x="0"
     inkscape:window-y="0"
     inkscape:window-maximized="1"
     showborder="true"
     inkscape:showpageshadow="false"
     inkscape:pagecheckerboard="false"
     showguides="true"
     inkscape:snap-to-guides="true"
     fit-margin-left="0"
     fit-margin-right="0"
     fit-margin-top="0"
     fit-margin-bottom="0">
    <sodipodi:guide
       position="18.8988,0"
       orientation="264.5833,0"
       id="guide1403" />
    <sodipodi:guide
       position="37.7976,0"
       orientation="264.5833,0"
       id="guide1405" />
    <sodipodi:guide
       position="56.6964,0"
       orientation="264.5833,0"
       id="guide1407" />
    <sodipodi:guide
       position="75.5952,0"
       orientation="264.5833,0"
       id="guide1409" />
    <sodipodi:guide
       position="94.494,0"
       orientation="264.5833,0"
       id="guide1411" />
    <sodipodi:guide
       position="113.393,0"
       orientation="264.5833,0"
       id="guide1413" />
    <sodipodi:guide
       position="132.292,0"
       orientation="264.5833,0"
       id="guide1415" />
    <sodipodi:guide
       position="151.19,0"
       orientation="264.5833,0"
       id="guide1417" />
    <sodipodi:guide
       position="170.089,0"
       orientation="264.5833,0"
       id="guide1419" />
    <sodipodi:guide
       position="188.988,0"
       orientation="264.5833,0"
       id="guide1421" />
    <sodipodi:guide
       position="207.887,0"
       orientation="264.5833,0"
       id="guide1423" />
    <sodipodi:guide
       position="226.786,0"
       orientation="264.5833,0"
       id="guide1425" />
    <sodipodi:guide
       position="245.685,0"
       orientation="264.5833,0"
       id="guide1427" />
    <sodipodi:guide
       position="0,18.8988"
       orientation="0,264.5833"
       id="guide1429" />
    <sodipodi:guide
       position="0,37.7976"
       orientation="0,264.5833"
       id="guide1431" />
    <sodipodi:guide
       position="0,56.6964"
       orientation="0,264.5833"
       id="guide1433" />
    <sodipodi:guide
       position="0,75.5952"
       orientation="0,264.5833"
       id="guide1435" />
    <sodipodi:guide
       position="0,94.494"
       orientation="0,264.5833"
       id="guide1437" />
    <sodipodi:guide
       position="0,113.393"
       orientation="0,264.5833"
       id="guide1439" />
    <sodipodi:guide
       position="0,132.292"
       orientation="0,264.5833"
       id="guide1441" />
    <sodipodi:guide
       position="0,151.19"
       orientation="0,264.5833"
       id="guide1443" />
    <sodipodi:guide
       position="0,170.089"
       orientation="0,264.5833"
       id="guide1445" />
    <sodipodi:guide
       position="0,188.988"
       orientation="0,264.5833"
       id="guide1447" />
    <sodipodi:guide
       position="0,207.887"
       orientation="0,264.5833"
       id="guide1449" />
    <sodipodi:guide
       position="0,226.786"
       orientation="0,264.5833"
       id="guide1451" />
    <sodipodi:guide
       position="0,245.685"
       orientation="0,264.5833"
       id="guide1453" />
    <sodipodi:guide
       position="264.583,0"
       orientation="0.5253219888177297,0.5253219888177297"
       id="guide1524" />
    <sodipodi:guide
       position="264.583,264.583"
       orientation="-0.8509035245341184,0.8509035245341184"
       id="guide1526" />
  </sodipodi:namedview>
  <metadata
     id="metadata109">
    <rdf:RDF>
      <cc:Work
         rdf:about="">
        <dc:format>image/svg+xml</dc:format>
        <dc:type
           rdf:resource="http://purl.org/dc/dcmitype/StillImage" />
        <dc:title />
      </cc:Work>
    </rdf:RDF>
  </metadata>
  <g
     inkscape:label="Capa 1"
     inkscape:groupmode="layer"
     id="layer1"
     style="display:inline">
    <path
       id="path1740"
       style="font-variation-settings:normal;opacity:1;vector-effect:none;fill:#ecfefe;fill-opacity:1;fill-rule:evenodd;stroke:#009788;stroke-width:10;stroke-linecap:butt;stroke-linejoin:miter;stroke-miterlimit:4;stroke-dasharray:none;stroke-dashoffset:0;stroke-opacity:1;stop-color:#000000;stop-opacity:1"
       transform="scale(0.26458333)"
       d="M 498.86914,5 A 494.99973,494.99973 0 0 0 5,500 494.99973,494.99973 0 0 0 500,995 494.99973,494.99973 0 0 0 995,500 494.99973,494.99973 0 0 0 500,5 494.99973,494.99973 0 0 0 498.86914,5 Z m 112.79492,257.09375 c 0.22196,0.0517 0.4145,0.32875 0.35742,0.7793 -0.0563,0.44478 -0.009,0.12143 -0.10937,0.6289 -0.0385,0.19551 -0.0404,0.28872 -0.11523,0.47657 -0.0331,0.083 -0.077,0.16124 -0.11915,0.24023 -0.0245,0.15098 -0.0457,0.30355 -0.0937,0.44922 -0.0469,0.14188 -0.11083,0.27723 -0.16601,0.41601 -0.0477,0.24586 -0.16776,0.46578 -0.25,0.69922 -0.002,0.078 -0.001,0.15608 -0.0117,0.23438 -0.004,0.17989 -0.007,0.36122 0.004,0.54101 0.0336,0.61546 -0.37713,0.82375 -0.66016,0.61719 -0.16594,0.071 -0.33656,0.0283 -0.44336,-0.10351 -0.11821,-0.0344 -0.14273,-0.14286 -0.23242,-0.38477 -0.0794,-0.21408 -0.0363,-0.27327 0.0664,-0.25586 0.002,0.01 -0.005,-0.0591 -0.002,-0.0312 0.0212,-0.071 0.036,-0.14406 0.0625,-0.21289 0.0166,-0.0421 0.0457,-0.078 0.0684,-0.11719 -10e-4,0.0132 -0.0111,0.0512 -0.004,0.0391 0.0586,-0.12212 0.0788,-0.26286 0.0977,-0.39454 0.0147,-0.046 0.026,-0.0923 0.0449,-0.13672 0.004,-0.009 0.0194,-0.009 0.0215,-0.0176 0.0154,-0.0688 0.0218,-0.14375 0.0273,-0.21875 -0.0192,-0.19588 -0.0352,-0.39173 -0.0625,-0.58789 0.0113,-0.60342 0.0732,-1.21675 -0.0273,-1.81446 h 0.002 c -0.0753,-0.44785 0.10693,-0.71993 0.32813,-0.76953 0.22119,-0.0496 0.48244,0.12438 0.56835,0.57031 10e-4,0.006 7.5e-4,0.0118 0.002,0.0176 0.0349,-0.0413 0.0708,-0.074 0.10937,-0.0976 0.0639,-0.44658 0.31587,-0.61799 0.53711,-0.56641 z m -1.64844,4.29883 c -0.0255,0.005 -0.0188,4.4e-4 -0.0469,0.006 -0.0217,0.004 -0.0333,0.0244 -0.043,0.0488 0.0193,0.005 0.0522,0.0285 0.0742,0.0371 0.008,-0.0289 0.001,-0.0497 0.0117,-0.0801 9.7e-4,-0.003 0.003,-0.008 0.004,-0.0117 z m -4.8457,1.23633 c 0.23284,2.4e-4 0.44852,0.22716 0.41016,0.67968 -0.0155,0.18262 0.01,0.3597 0.0449,0.53516 0.0414,0.0104 0.0838,0.0181 0.125,0.0293 0.24718,0.0876 0.15161,0.0606 0.28125,0.0957 0.0472,0.019 0.0911,0.0449 0.14063,0.0566 0.0234,0.006 0.0496,-0.01 0.0723,-0.006 0.24371,0.0388 0.32172,0.0778 0.55469,0.16211 0.1114,-0.003 0.22174,-0.0144 0.33203,-0.0117 0.90864,0.0224 0.88416,0.94178 -0.0234,0.91797 -0.12017,-0.003 -0.23979,0.005 -0.35937,0.0137 0.0123,0.003 0.0116,0.007 0.0254,0.01 0.12208,0.0287 0.69853,-0.0633 0.0195,0.0273 -0.0361,-0.009 -0.0688,-0.024 -0.10352,-0.0351 -0.0324,0.004 -0.0654,-0.003 -0.0976,0.004 -0.15942,-0.002 -0.32311,-0.007 -0.46485,-0.0937 -0.008,-0.005 0.0349,-0.005 0.0274,-0.008 -0.051,-0.0159 -0.10605,-0.0219 -0.15821,-0.0332 -0.0257,-0.009 -0.0497,-0.0183 -0.0762,-0.0274 0.0351,-3.8e-4 0.13949,-0.004 0.10547,-0.002 -0.0589,0.004 -0.10912,-0.005 -0.16406,-0.006 0.007,0.0548 0.015,0.1095 0.0234,0.16406 -0.0416,0.21359 0.0609,0.41349 0.0723,0.6211 0.004,0.1195 -0.004,0.22086 -0.008,0.33984 -0.0113,0.1265 6e-4,0.25233 -0.002,0.37891 -1.9e-4,0.01 -6.8e-4,-0.0195 -0.002,-0.0293 -0.0548,-0.90663 -0.83236,1.01805 -0.91211,0.11328 -0.0142,-0.16786 -0.002,-0.33778 0.002,-0.50586 0.004,-0.0504 0.005,-0.10005 0.008,-0.15039 0.004,-0.007 0.007,-0.0124 0.008,-0.0195 0.004,-0.0573 -0.024,-0.11323 -0.0312,-0.16992 -0.0409,-0.25402 -0.0335,-0.20523 -0.041,-0.44727 -0.0151,-0.11792 -0.0262,-0.23658 -0.0488,-0.35351 -0.0122,-0.0641 -0.011,-0.0405 -0.0195,-0.082 -0.0651,-0.0127 -0.13062,-0.0237 -0.19532,-0.0391 -0.16218,-0.0384 -0.32179,-0.0889 -0.48242,-0.13281 h -0.002 c -0.0977,-0.0267 -0.18097,-0.0612 -0.25195,-0.10156 -0.22478,-0.0182 -0.44951,-0.0435 -0.67383,-0.0508 h -0.002 c -0.90589,-0.0309 -0.9817,-0.93415 -0.0742,-0.91602 0.4802,0.01 0.96801,0.0442 1.45117,0.10938 -0.01,-0.11941 -0.0195,-0.23828 -0.0137,-0.35743 h -0.002 c 0.0245,-0.45348 0.27302,-0.67992 0.50586,-0.67968 z m -7.88281,4.83203 c 0.221,0.0464 0.36577,0.30662 0.21875,0.73633 -0.079,0.23114 -0.11923,0.37851 -0.23828,0.59179 -0.0454,0.0811 -0.10863,0.15256 -0.15625,0.23242 -0.0269,0.0477 -0.018,0.10799 -0.0293,0.16211 -0.0197,0.0871 -0.0417,0.17502 -0.0645,0.26172 -0.0299,0.10693 -0.0558,0.21471 -0.0898,0.32031 -0.004,0.0131 -0.009,0.0261 -0.0137,0.0391 0.0338,0.008 0.069,0.0138 0.0977,0.0293 0.0264,-0.0353 0.0556,-0.0672 0.0859,-0.10351 0.0382,-0.0453 0.0871,-0.0838 0.12109,-0.13086 0.0903,-0.11952 0.26161,-0.41465 0.32813,-0.52539 0.17509,-0.29216 0.38858,-0.40866 0.56445,-0.39649 0.29312,0.0203 0.48086,0.39531 0.20703,0.89258 -0.21109,0.38336 -0.47294,0.73585 -0.77148,1.05469 -0.11188,0.17415 -0.22722,0.34545 -0.33985,0.51953 -0.0283,0.0439 -0.0672,0.11292 -0.10351,0.17188 -0.0121,0.035 -0.02,0.0721 -0.0391,0.10351 -0.0408,0.0676 -0.0964,0.12403 -0.14062,0.18946 0,0.003 0.0109,2.2e-4 0.01,0.004 -0.0215,0.0403 -0.0496,0.0752 -0.0723,0.11524 -0.004,0.004 0.006,0.01 0.004,0.0137 -0.0227,0.0498 -0.0517,0.096 -0.0781,0.14453 0.0208,0.0453 -0.29137,0.4891 -0.17383,0.28516 0.22646,-0.39307 -0.0831,-0.26723 -0.40039,-0.14649 -0.0183,0.0596 -0.0404,0.12638 -0.0449,0.13672 -0.0661,0.17294 -0.12521,0.27958 -0.22461,0.43359 0.008,-0.009 0.0349,-0.0387 0.0273,-0.0273 -0.0249,0.0453 -0.0575,0.0856 -0.084,0.13086 0,0.003 0.009,0.003 0.008,0.006 -0.0157,0.0354 -0.0341,0.0692 -0.0527,0.10351 -0.005,0.0156 -0.01,0.0317 -0.0176,0.0469 -0.003,0.006 9.1e-4,-0.0151 0.004,-0.0215 0.005,-0.009 0.009,-0.0169 0.0137,-0.0254 0.003,-0.008 0.005,-0.0158 0.008,-0.0234 -0.79442,0.63156 -0.25276,0.40782 -0.17188,0.31836 0.034,-0.0376 0.0747,-0.17177 0.0898,-0.12305 0.0208,0.0737 -0.0436,0.14632 -0.0625,0.2207 -0.0113,0.0442 -0.0122,0.0921 -0.0273,0.13477 -0.031,0.0828 -0.0735,0.16022 -0.11132,0.24023 -0.09,0.13792 -0.11773,0.11311 -0.0762,0.25 0.031,0.10211 0.0401,0.19216 0.0371,0.27344 0.086,-0.0703 0.17051,-0.12283 0.25,-0.14063 0.39202,-0.0877 0.6469,0.40322 0.23438,0.94532 -0.0454,0.0599 -0.0872,0.12318 -0.13672,0.17968 -0.0673,0.0767 -0.14568,0.14549 -0.21484,0.22071 -0.0567,0.0614 -0.0995,0.13249 -0.1543,0.19531 -0.32772,0.37523 0.008,-0.0366 -0.32422,0.38086 -0.20867,0.19978 -0.30226,0.48211 -0.47461,0.70703 -0.0397,0.052 -0.0858,0.0992 -0.12891,0.14844 -0.11866,0.12392 -0.13452,0.29013 -0.19726,0.4375 -0.0265,0.0622 -0.0557,0.12233 -0.0859,0.18359 0.11906,-0.13752 -0.11196,0.28743 -0.13086,0.32031 -0.46328,0.75333 -0.47838,-1.25808 -0.73242,-0.5664 -0.003,0.0239 0.004,0.0111 -0.0234,0.11328 -0.008,0.0231 -0.002,-0.0493 0.004,-0.0723 0.007,-0.0228 0.0127,-0.0223 0.0195,-0.041 0.008,-0.0601 -0.0129,-0.0245 0.0723,-0.2168 -0.004,0.0192 -0.0173,0.0771 -0.01,0.0586 0.0782,-0.23451 0.1472,-0.45932 0.28516,-0.66992 0.0385,-0.0592 0.0842,-0.11349 0.12695,-0.16992 0.0862,-0.0778 0.12117,-0.16629 0.18164,-0.26758 0.1124,-0.18871 0.23724,-0.37276 0.38086,-0.53906 0.52611,-0.65105 -0.02,0.012 0.32617,-0.38281 0.0934,-0.10651 0.1167,-0.15692 0.21875,-0.26758 0.0389,-0.0423 0.0833,-0.078 0.12305,-0.11914 -0.24759,0.0156 -0.52627,-0.17501 -0.5586,-0.61523 -0.0208,-0.28608 0.004,-0.57335 0.19336,-0.80469 0,0.0102 0.005,0.0391 0.008,0.0293 0.0642,-0.21234 0.0857,-0.40616 0.18554,-0.61132 0.002,-0.006 0.002,-0.0118 0.004,-0.0176 0.0488,-0.17281 0.1746,-0.33417 0.25586,-0.49219 -0.008,0.021 -0.0291,0.0833 -0.0215,0.0625 0.0104,-0.0245 0.0217,-0.0484 0.0332,-0.0723 -0.0109,-0.004 -0.0142,-0.008 -0.0254,-0.0117 -0.003,0.0175 -0.007,0.0177 -0.01,0.0391 9.2e-4,-0.0136 0.003,-0.0273 0.004,-0.041 -0.004,-0.002 -0.005,-0.002 -0.01,-0.004 -0.25587,-0.0949 -0.16859,-0.0819 0.0137,-0.0391 0.002,-0.028 0.002,-0.0564 0.008,-0.084 0.0102,-0.0561 0.12173,-0.52043 0.1875,-0.51953 0.014,-0.0386 0.0222,-0.0801 0.0449,-0.11524 0.009,-0.0117 -0.002,0.0543 0.002,0.041 0.0197,-0.0631 0.0221,-0.13062 0.041,-0.19336 0.11146,-0.36212 0.0169,0.13226 0.11328,-0.27344 0.01,-0.0205 0.0112,-0.0166 0.0176,-0.0293 -0.0221,-0.19298 -0.01,-0.3462 0.12695,-0.52344 0.082,-0.0668 0.10648,-0.18017 0.13672,-0.27734 0.0771,-0.254 0.171,-0.49867 0.23828,-0.75586 0.0204,-0.0843 0.10453,-0.44692 0.13477,-0.52735 0.16252,-0.43982 0.0352,-0.06 0.17773,-0.30273 0.0779,-0.13249 0.11625,-0.25036 0.16992,-0.39258 0.1605,-0.42484 0.45869,-0.59136 0.67969,-0.54492 z m 16.26367,3.28515 c 0.75224,-0.0782 -0.38451,0.6774 -0.27148,0.8711 0.009,0.008 0.0184,0.0254 0.0273,0.0351 0.0395,0.0157 0.0985,0.0202 0.20117,0.01 l 0.10742,-0.0137 c 0.005,-0.002 0.009,-0.004 0.0137,-0.006 0.0113,-0.005 0.0238,-0.0183 0.0351,-0.0156 0.008,0.002 -0.0157,0.0115 -0.0195,0.0176 l -0.0293,0.004 c -0.0773,0.0328 -0.15447,0.0651 -0.23242,0.0957 0.0272,0.0368 0.0471,0.0446 0.0781,0.0937 0.0264,0.0445 0.002,0.10552 0.004,0.1582 0.002,0.0682 -0.009,0.0987 -0.0176,0.13672 0.0612,0.005 0.1223,0.0112 0.18359,0.0156 0.16842,0.0126 0.33714,0.022 0.50586,0.0254 0.0129,-0.0353 0.014,-0.0275 0.0273,-0.0664 0.0113,-0.0322 0.0676,0.006 0.10156,0.008 0.0779,0.005 0.15495,0.006 0.23243,0.004 0.90633,-0.023 0.92404,0.90474 0.0156,0.91797 -0.0881,0.001 -0.12688,-3.6e-4 -0.18555,0 -0.004,0.0149 -0.005,0.0197 -0.01,0.0352 -0.0204,0.0701 -0.14385,0.0186 -0.2168,0.0176 -0.92862,-0.0125 -1.8508,-0.17713 -2.77734,-0.2207 h -0.002 c -0.77051,-0.0374 -0.83156,-0.7153 -0.27539,-0.87891 -0.11691,-0.0174 -0.23171,-0.0485 -0.35157,-0.0527 h -0.002 c -0.90593,-0.0333 -1.04359,-0.86999 -0.13672,-0.90625 0.26138,-0.0105 0.51757,0.0163 0.77148,0.0645 0.06,-0.0245 0.1165,-0.05 0.18946,-0.0664 0.35005,-0.0787 0.72926,-0.1702 1.08984,-0.125 0.031,-0.0145 0.0621,-0.0371 0.0898,-0.0449 0.14335,-0.0408 0.29834,-0.0172 0.44335,-0.006 0.0286,-0.0108 0.0616,-0.0209 0.0801,-0.0293 0.0571,-0.0256 0.11682,-0.0417 0.17578,-0.0625 0.0518,-0.005 0.1029,-0.0103 0.1543,-0.0156 z m -0.80859,0.97266 c -0.0602,0.0167 -0.10739,0.0295 -0.17578,0.0488 -0.002,0.0127 -0.003,0.0273 -0.004,0.043 0.007,-7.3e-4 0.0143,-0.003 0.0215,-0.002 0.007,8.6e-4 -0.0124,0.005 -0.0215,0.004 -0.002,0.0317 -0.0106,0.0414 -0.01,0.0859 0.005,0.0753 0.0164,0.11854 0.0332,0.1582 0.0488,0.005 0.0977,0.009 0.14648,0.0137 0.009,-0.0702 0.022,-0.14022 0.0273,-0.21093 -10e-4,-0.0406 0.002,-0.0811 0.004,-0.1211 -0.007,-0.005 -0.0139,-0.0121 -0.0215,-0.0195 z m -17.48438,0.15234 c -0.0209,0.006 -0.0294,0.0343 -0.0391,0.0899 0.0173,0.004 0.0197,0.006 0.0352,0.01 0.0132,-0.0278 0.028,-0.0551 0.0391,-0.084 -0.005,-1.4e-4 -0.0315,-0.0168 -0.0352,-0.0156 z m 17.50586,0.11133 c -0.007,0.0298 -0.0181,0.0586 -0.0273,0.0879 0.01,9.2e-4 0.0196,5.2e-4 0.0293,0.002 -8.8e-4,-0.03 6e-4,-0.0596 -0.002,-0.0899 z m 0.29688,0.0215 c -0.005,0.0319 -0.016,0.062 -0.0215,0.0937 0.0507,0.005 0.10161,0.007 0.15235,0.0117 -0.0451,-0.0396 -0.0821,-0.0553 -0.13086,-0.10547 z m 74.74609,11.4375 c 1.4619,-0.0947 2.54065,1.27958 2.13672,3.20312 1.46301,1.54809 1.14014,2.46091 -0.44531,4.10352 -1.73023,1.72302 -3.59759,3.28278 -5.36524,4.96289 -0.54474,0.51779 -1.04032,1.08503 -1.59179,1.5957 -0.58266,0.53957 -1.20625,1.03521 -1.8086,1.55274 -1.18915,0.76456 -1.33496,0.94188 -2.52344,1.44726 -0.0541,0.023 -0.13107,0.0614 -0.20507,0.10156 -0.0157,0.0395 -0.018,0.025 -0.0371,0.084 -0.0208,0.0635 -0.0164,0.13396 -0.0391,0.19726 -0.10233,0.30884 -0.22161,0.54724 -0.375,0.81055 1.8e-4,0.02 0.002,0.0403 0.002,0.0645 0.006,-0.0125 0.0165,-0.0366 0.0156,-0.0254 -0.002,0.0224 -0.0128,0.0423 -0.0156,0.0645 10e-4,0.18577 0.002,0.40136 0.002,0.46289 0.007,1.81211 -1.81552,1.82315 -1.83203,0.0195 -0.0557,-0.0163 -0.13299,-0.0345 -0.16797,-0.0527 -0.0281,0.0569 -0.0696,0.15013 -0.082,0.16797 0.30833,0.26907 0.40549,0.86446 0.0293,1.6211 -0.0597,0.1195 -0.13509,0.23363 -0.17969,0.35937 -0.0272,0.0799 -0.022,0.16839 -0.0371,0.25195 -0.0416,0.24595 -0.0612,0.49472 -0.10547,0.74024 -0.0782,0.43761 -0.1336,0.51912 -0.29687,0.94531 -0.19595,0.6113 -0.39428,1.22083 -0.67188,1.79883 0.34038,0.17199 0.49904,0.28022 -0.0352,0.13867 -1.86373,-0.49486 -1.84284,0.11238 -1.625,-0.91211 -0.29756,-0.14144 -0.40603,-0.20986 0.0352,-0.0723 0.0117,-0.0245 0.023,-0.0497 0.0371,-0.0723 0.004,-0.008 0.0219,-0.003 0.0254,-0.0117 0.19548,-0.50729 0.34101,-1.03409 0.52734,-1.54492 0.0563,-0.13521 0.13053,-0.26626 0.16407,-0.4082 -0.27583,-0.23805 -0.41564,-0.71667 -0.21094,-1.39649 0.0537,-0.17759 0.11137,-0.35448 0.19726,-0.51953 0.1867,-0.57683 0.15369,-0.45121 0.13477,-0.375 0.005,-0.028 0.0122,-0.0618 0.0703,-0.27344 0.0155,-0.0564 0.0303,-0.11334 0.0606,-0.16406 0.004,-0.009 0.0255,0.0142 0.0273,0.01 0.0272,-0.13943 0.0337,-0.28293 0.0488,-0.42383 0.0472,-0.14972 0.0878,-0.30208 0.14258,-0.44922 0.004,-0.0102 0.0199,-0.008 0.0312,-0.0117 0.0333,-0.11146 0.0636,-0.22253 0.0977,-0.33398 0.008,-0.0121 0.0322,-0.007 0.0351,-0.0195 0.037,-0.14619 0.0575,-0.29692 0.084,-0.44531 0.0495,-0.1791 0.0989,-0.358 0.14843,-0.53711 0.0355,-0.1284 0.0828,-0.23419 0.13086,-0.33789 -0.94665,-0.42788 -1.31513,-0.70115 -0.91601,-1.47461 h -0.35938 c -1.81659,0 -1.81659,-1.83593 0,-1.83593 h 1.16797 0.3125 c 0.34257,-0.43781 0.73239,-0.81709 1.14063,-1.17969 -0.48799,-0.0155 -0.97521,-0.0277 -1.46289,-0.0742 -1.1644,-0.18914 -2.25291,-0.36944 -3.36328,-0.77148 -0.19437,-0.0704 -0.48861,-0.10034 -0.54493,-0.29688 -0.0629,-0.0133 -0.12641,-0.0244 -0.18945,-0.0371 -0.2315,-0.058 -0.4647,-0.10583 -0.69336,-0.17383 -0.12661,-0.0376 -0.23994,-0.1267 -0.37109,-0.14258 -0.62102,-0.0746 -1.66247,0.4627 -1.8711,-0.12695 -1.9062,-5.387 -0.23011,-4.99859 2.85157,-5.60547 1.48255,-0.1265 2.95929,-0.30665 4.44336,-0.41406 0.93814,-0.0679 1.88276,-0.0565 2.82031,-0.13477 1.52991,-0.12772 3.05894,-0.38677 4.58398,-0.57031 0.37988,-0.30841 0.69859,-0.71182 1.13867,-0.92578 0.65134,-0.31666 1.24963,-0.4331 1.86524,-0.42578 0.0356,-0.0515 0.0741,-0.10059 0.10937,-0.15234 0.905,-1.3263 1.92179,-1.91741 2.80469,-1.97461 z m -15.21875,23.63086 c -0.0102,0.0214 -0.0225,0.0415 -0.0332,0.0625 -0.001,0.005 1.2e-4,0.005 -0.002,0.01 0.42939,0.2041 1.19897,0.54186 1.6543,0.77149 0.23505,-0.80998 0.15291,-0.27664 -1.58594,-0.83399 -0.0202,-0.006 -0.0148,-0.004 -0.0332,-0.01 z m -80.85156,-20.76954 c 0.21876,-0.0419 0.50538,0.1316 0.65429,0.56055 0.11906,0.34575 0.0102,0.76645 0.10352,1.10547 0.005,0.0179 0.0806,0.1509 0.0957,0.17773 -0.0359,-0.0457 -0.0696,-0.091 -0.10742,-0.13671 -0.19418,-0.24609 -0.2342,-0.12156 -0.24609,0.0762 0.0325,0.004 0.0651,0.006 0.0977,0.01 0.21268,0.0486 0.40094,0.16423 0.60352,0.24024 0.15194,0.057 0.1559,0.026 0.30859,0.11328 0.0563,0.0321 0.10567,0.0753 0.15821,0.11328 0.73553,0.53292 -1.41527,0.17886 -0.64258,0.65625 0.0367,0.0228 0.0754,0.0412 0.10937,0.0684 0.0193,0.0155 -0.0437,-0.0249 -0.0664,-0.0332 -0.0756,-0.0275 -0.15488,-0.0459 -0.23047,-0.0742 -0.74842,-0.28245 0.0733,0.0171 -0.3418,-0.1543 -0.0359,-0.0147 -0.0735,-0.025 -0.11133,-0.0371 0.0174,-0.011 0.0755,-0.0245 0.0566,-0.0332 -0.0276,-0.0117 -0.0596,0.0139 -0.0898,0.0195 -0.0654,0.0125 -0.12879,0.0291 -0.19531,0.0332 -0.18667,0.0115 -0.37163,-0.0185 -0.55078,-0.0684 -0.0926,-0.0258 -0.18078,-0.0667 -0.27149,-0.0996 -0.74733,-0.27056 -0.56578,-0.92388 0.0703,-0.89648 0.0909,0.004 0.19075,0.0219 0.29883,0.0566 0.0427,0.0138 0.0927,0.0316 0.14063,0.0488 -0.0654,-0.33308 0.003,-0.67748 -0.0898,-1.00781 -0.12364,-0.437 0.0273,-0.69633 0.2461,-0.73829 z m 5.24219,7.33594 c 0.0904,-0.002 0.19255,0.008 0.30273,0.0352 0.36019,0.0895 0.7623,0.23165 0.86133,0.63867 0.006,0.0287 0.01,0.0583 0.0137,0.0879 0.0705,0.003 0.073,0.005 0.01,0.008 v 0.002 c 0.0836,0.19462 0.0519,0.2113 0.0918,0.41211 0.0261,0.1324 0.0727,0.25749 0.0937,0.39257 0.0378,0.0589 0.0482,0.12955 0.0645,0.19727 1.143,-0.0855 3.16399,-0.13582 3.89257,-0.17383 0.12849,-0.007 0.25638,-0.0227 0.38477,-0.0312 0.0346,-0.015 0.0599,-0.0349 0.0996,-0.0469 0.43249,-0.13059 0.8767,-0.15524 1.32812,-0.14844 9.9e-4,0.003 0.003,0.005 0.004,0.008 0.0493,-0.0208 0.096,-0.034 0.13086,-0.0332 0.0316,7.5e-4 0.054,0.014 0.0625,0.0508 0.0231,0.10103 0.004,0.2013 -0.0254,0.30078 0.11275,0.19652 0.21624,0.39281 0.17969,0.60352 -0.0305,0.17578 -0.34971,0.0721 -0.52735,0.0898 -0.47335,0.0475 -0.75181,0.0557 -1.08984,0.0781 -0.0472,0.01 -0.0886,0.01 -0.13086,0.01 -0.79476,0.0489 -1.49535,0.0701 -2.75391,0.11914 -0.54424,0.0212 -1.08931,0.0364 -1.63281,0.0723 0.15475,0.78454 -0.52867,1.25969 -0.74609,0.42968 -0.0286,-0.1095 -0.10501,-0.19439 -0.17774,-0.28125 -0.63625,0.003 -0.89832,-0.51196 -0.24414,-0.77539 -0.0214,-0.22633 -0.0215,-0.45633 -0.0176,-0.68554 0.002,-0.13204 0.007,-0.26428 0.01,-0.39649 -0.0614,-0.021 -0.12808,-0.0454 -0.17383,-0.0586 -0.76367,-0.22063 -0.63883,-0.88754 -0.01,-0.9043 z m 1.1875,0.77149 c -0.003,1.7e-4 -0.006,-1.7e-4 -0.01,0 0.003,0.0256 0.008,0.0509 0.0117,0.0762 -8e-5,-0.0254 -0.0118,-0.0947 -0.002,-0.0762 z m 76.58203,1.89648 c -0.0327,0.0264 -0.0825,0.095 -0.125,0.14063 h 0.0625 c 0.0292,0.004 0.0409,0.009 0.0664,0.0137 0.0329,-0.0406 0.0499,-0.0656 0.084,-0.10742 -0.0296,-0.015 -0.0583,-0.0319 -0.0879,-0.0469 z m 29.75781,92.02148 c 0.5818,-0.0596 1.30131,0.97203 3.1543,3.66407 0.0623,-0.17187 0.12918,-0.33505 0.21093,-0.45703 -0.23501,0.73255 -0.17342,0.54747 -0.16406,0.52148 0.0143,0.0207 0.0227,0.0338 0.0371,0.0547 0.061,0.0886 -0.14371,0.42015 -0.39258,0.77929 -0.14323,0.47551 -0.25249,1.20689 -0.32422,1.4629 -0.18714,0.66974 -0.47666,1.345 -0.75976,2 0.41653,1.02015 0.1079,2.45948 -1.31836,3.6875 -0.0222,0.46878 0.012,0.94201 0.0137,1.4121 0.004,1.20892 0.0232,2.41626 0.0156,3.625 -0.0752,1.30855 -0.16285,2.62258 0.084,3.92383 0.0835,0.81151 0.29932,2.22591 0.0762,3.02539 -0.63239,2.26027 -1.96289,3.33776 -4.2207,3.60157 -0.74941,-0.25883 -1.65096,-0.25382 -2.24805,-0.77539 -1.13023,-0.98744 -0.90883,-2.43444 -0.92773,-3.69922 0.005,-0.8839 0.0285,-1.76803 0.0391,-2.65235 -0.36377,-0.33051 -0.81993,-0.9113 -1.44727,-1.68554 -0.36155,0.37354 -0.67479,0.63579 -0.90625,0.70312 -0.37146,1.11671 -0.72311,2.24228 -1.20898,3.31641 -0.13516,0.29884 -0.31517,0.57616 -0.44141,0.8789 -0.0367,0.0915 -0.0186,0.20006 -0.0488,0.29493 -0.0631,0.20519 -0.1506,0.40087 -0.22657,0.60156 -0.63987,1.56128 -0.44094,1.11089 -0.31054,-0.32813 0.32764,-3.61833 -3.7007,4.6966 -3.51172,1.06836 0.0174,-0.33127 -0.0416,-1.69357 0.32422,-1.83984 0.0212,-0.008 -0.33781,1.19921 0.082,-0.24219 0.24506,-0.57192 0.0851,-0.17404 0.42187,-1.2207 0.0866,-0.21623 0.22302,-0.40749 0.32031,-0.61914 0.47177,-1.02539 0.78958,-2.11041 1.1543,-3.17578 0.50922,-1.70378 0.88462,-3.4394 1.4082,-5.13868 0.53509,-1.73597 1.63088,-2.51287 2.5,-2.41211 0.86935,0.10099 1.5123,1.08083 1.14258,2.85938 -0.049,0.23577 -0.11904,0.46452 -0.17773,0.69727 0.18139,-0.27426 0.36329,-0.54817 0.54492,-0.82227 0.17549,-0.2904 0.21177,-0.3521 0.35742,-0.5918 7.4e-4,-0.52941 0.0732,-1.06111 0.21094,-1.56445 0.20641,-0.75407 1.02774,-1.42926 1.89063,-2.01758 0.2815,-0.506 0.49519,-0.86981 0.9414,-1.70898 0.17431,-0.32757 0.34819,-0.65537 0.48047,-1.00196 0.0786,-0.20606 -0.0591,-0.57165 0.14844,-0.64648 0.0743,-0.0266 0.1147,0.10165 0.14062,0.23828 0.006,-0.0136 0.01,-0.0274 0.0156,-0.041 -0.0301,-0.39098 -0.0972,-0.77959 -0.14063,-1.16993 0.15073,-0.45312 0.25697,-0.92405 0.45313,-1.35937 0.11614,-0.25769 0.30648,-0.47554 0.47656,-0.70117 0.15384,-0.2042 0.27552,-0.32503 0.39062,-0.42578 0.0704,-0.15124 0.12368,-0.28523 0.1543,-0.34766 0.75129,-1.02951 1.14099,-1.72589 1.58594,-1.77149 z m -8.17188,18.48829 c 0.19773,-0.20428 0.41536,-0.45106 0.63282,-0.69922 -0.25957,-0.42191 -0.54085,-0.82545 -0.84961,-1.20508 -0.11654,0.42058 -0.2249,0.84471 -0.32813,1.26953 0.17971,0.21054 0.3901,0.44369 0.54492,0.63477 z" />
    <path
       id="path1740-9"
       style="font-variation-settings:normal;display:inline;mix-blend-mode:normal;vector-effect:none;fill:#009788;fill-opacity:1;fill-rule:evenodd;stroke:none;stroke-width:9.32897;stroke-linecap:butt;stroke-linejoin:miter;stroke-miterlimit:4;stroke-dasharray:none;stroke-dashoffset:0;stroke-opacity:1;stop-color:#000000"
       transform="scale(0.26458333)"
       d="M 499.21875,34.144531 A 464.99983,464.99983 0 0 0 34.703125,499.14453 a 464.99983,464.99983 0 0 0 464.999995,465 464.99983,464.99983 0 0 0 465,-465 464.99983,464.99983 0 0 0 -465,-464.999999 464.99983,464.99983 0 0 0 -0.48437,0 z M 611.66406,262.09375 c 0.22196,0.0517 0.4145,0.32875 0.35742,0.7793 -0.0563,0.44478 -0.009,0.12143 -0.10937,0.6289 -0.0385,0.19551 -0.0404,0.28872 -0.11523,0.47657 -0.0331,0.083 -0.077,0.16124 -0.11915,0.24023 -0.0245,0.15098 -0.0457,0.30355 -0.0937,0.44922 -0.0469,0.14188 -0.11083,0.27723 -0.16601,0.41601 -0.0477,0.24586 -0.16776,0.46578 -0.25,0.69922 -0.002,0.078 -0.001,0.15608 -0.0117,0.23438 -0.004,0.17989 -0.007,0.36122 0.004,0.54101 0.0336,0.61546 -0.37713,0.82375 -0.66016,0.61719 -0.16594,0.071 -0.33656,0.0283 -0.44336,-0.10351 -0.11821,-0.0344 -0.14273,-0.14286 -0.23242,-0.38477 -0.0794,-0.21408 -0.0363,-0.27327 0.0664,-0.25586 0.002,0.01 -0.005,-0.0591 -0.002,-0.0312 0.0212,-0.071 0.036,-0.14406 0.0625,-0.21289 0.0166,-0.0421 0.0457,-0.078 0.0684,-0.11719 -10e-4,0.0132 -0.0111,0.0512 -0.004,0.0391 0.0586,-0.12212 0.0788,-0.26286 0.0977,-0.39454 0.0147,-0.046 0.026,-0.0923 0.0449,-0.13672 0.004,-0.009 0.0194,-0.009 0.0215,-0.0176 0.0154,-0.0688 0.0218,-0.14375 0.0273,-0.21875 -0.0192,-0.19588 -0.0352,-0.39173 -0.0625,-0.58789 0.0113,-0.60342 0.0732,-1.21675 -0.0273,-1.81446 h 0.002 c -0.0753,-0.44785 0.10693,-0.71993 0.32813,-0.76953 0.22119,-0.0496 0.48244,0.12438 0.56835,0.57031 10e-4,0.006 7.5e-4,0.0118 0.002,0.0176 0.0349,-0.0413 0.0708,-0.074 0.10937,-0.0976 0.0639,-0.44658 0.31587,-0.61799 0.53711,-0.56641 z m -1.64844,4.29883 c -0.0255,0.005 -0.0188,4.4e-4 -0.0469,0.006 -0.0217,0.004 -0.0333,0.0244 -0.043,0.0488 0.0193,0.005 0.0522,0.0285 0.0742,0.0371 0.008,-0.0289 0.001,-0.0497 0.0117,-0.0801 9.7e-4,-0.003 0.003,-0.008 0.004,-0.0117 z m -4.8457,1.23633 c 0.23284,2.4e-4 0.44852,0.22716 0.41016,0.67968 -0.0155,0.18262 0.01,0.3597 0.0449,0.53516 0.0414,0.0104 0.0838,0.0181 0.125,0.0293 0.24718,0.0876 0.15161,0.0606 0.28125,0.0957 0.0472,0.019 0.0911,0.0449 0.14063,0.0566 0.0234,0.006 0.0496,-0.01 0.0723,-0.006 0.24371,0.0388 0.32172,0.0778 0.55469,0.16211 0.1114,-0.003 0.22174,-0.0144 0.33203,-0.0117 0.90864,0.0224 0.88416,0.94178 -0.0234,0.91797 -0.12017,-0.003 -0.23979,0.005 -0.35937,0.0137 0.0123,0.003 0.0116,0.007 0.0254,0.01 0.12208,0.0287 0.69853,-0.0633 0.0195,0.0273 -0.0361,-0.009 -0.0688,-0.024 -0.10352,-0.0351 -0.0324,0.004 -0.0654,-0.003 -0.0976,0.004 -0.15942,-0.002 -0.32311,-0.007 -0.46485,-0.0937 -0.008,-0.005 0.0349,-0.005 0.0274,-0.008 -0.051,-0.0159 -0.10605,-0.0219 -0.15821,-0.0332 -0.0257,-0.009 -0.0497,-0.0183 -0.0762,-0.0274 0.0351,-3.8e-4 0.13949,-0.004 0.10547,-0.002 -0.0589,0.004 -0.10912,-0.005 -0.16406,-0.006 0.007,0.0548 0.015,0.1095 0.0234,0.16406 -0.0416,0.21359 0.0609,0.41349 0.0723,0.6211 0.004,0.1195 -0.004,0.22086 -0.008,0.33984 -0.0113,0.1265 6e-4,0.25233 -0.002,0.37891 -1.9e-4,0.01 -6.8e-4,-0.0195 -0.002,-0.0293 -0.0548,-0.90663 -0.83236,1.01805 -0.91211,0.11328 -0.0142,-0.16786 -0.002,-0.33778 0.002,-0.50586 0.004,-0.0504 0.005,-0.10005 0.008,-0.15039 0.004,-0.007 0.007,-0.0124 0.008,-0.0195 0.004,-0.0573 -0.024,-0.11323 -0.0312,-0.16992 -0.0409,-0.25402 -0.0335,-0.20523 -0.041,-0.44727 -0.0151,-0.11792 -0.0262,-0.23658 -0.0488,-0.35351 -0.0122,-0.0641 -0.011,-0.0405 -0.0195,-0.082 -0.0651,-0.0127 -0.13062,-0.0237 -0.19532,-0.0391 -0.16218,-0.0384 -0.32179,-0.0889 -0.48242,-0.13281 h -0.002 c -0.0977,-0.0267 -0.18097,-0.0612 -0.25195,-0.10156 -0.22478,-0.0182 -0.44951,-0.0435 -0.67383,-0.0508 h -0.002 c -0.90589,-0.0309 -0.9817,-0.93415 -0.0742,-0.91602 0.4802,0.01 0.96801,0.0442 1.45117,0.10938 -0.01,-0.11941 -0.0195,-0.23828 -0.0137,-0.35743 h -0.002 c 0.0245,-0.45348 0.27302,-0.67992 0.50586,-0.67968 z m -7.88281,4.83203 c 0.221,0.0464 0.36577,0.30662 0.21875,0.73633 -0.079,0.23114 -0.11923,0.37851 -0.23828,0.59179 -0.0454,0.0811 -0.10863,0.15256 -0.15625,0.23242 -0.0269,0.0477 -0.018,0.10799 -0.0293,0.16211 -0.0197,0.0871 -0.0417,0.17502 -0.0645,0.26172 -0.0299,0.10693 -0.0558,0.21471 -0.0898,0.32031 -0.004,0.0131 -0.009,0.0261 -0.0137,0.0391 0.0338,0.008 0.069,0.0138 0.0977,0.0293 0.0264,-0.0353 0.0556,-0.0672 0.0859,-0.10351 0.0382,-0.0453 0.0871,-0.0838 0.12109,-0.13086 0.0903,-0.11952 0.26161,-0.41465 0.32813,-0.52539 0.17509,-0.29216 0.38858,-0.40866 0.56445,-0.39649 0.29312,0.0203 0.48086,0.39531 0.20703,0.89258 -0.21109,0.38336 -0.47294,0.73585 -0.77148,1.05469 -0.11188,0.17415 -0.22722,0.34545 -0.33985,0.51953 -0.0283,0.0439 -0.0672,0.11292 -0.10351,0.17188 -0.0121,0.035 -0.02,0.0721 -0.0391,0.10351 -0.0408,0.0676 -0.0964,0.12403 -0.14062,0.18946 0,0.003 0.0109,2.2e-4 0.01,0.004 -0.0215,0.0403 -0.0496,0.0752 -0.0723,0.11524 -0.004,0.004 0.006,0.01 0.004,0.0137 -0.0227,0.0498 -0.0517,0.096 -0.0781,0.14453 0.0208,0.0453 -0.29137,0.4891 -0.17383,0.28516 0.22646,-0.39307 -0.0831,-0.26723 -0.40039,-0.14649 -0.0183,0.0596 -0.0404,0.12638 -0.0449,0.13672 -0.0661,0.17294 -0.12521,0.27958 -0.22461,0.43359 0.008,-0.009 0.0349,-0.0387 0.0273,-0.0273 -0.0249,0.0453 -0.0575,0.0856 -0.084,0.13086 0,0.003 0.009,0.003 0.008,0.006 -0.0157,0.0354 -0.0341,0.0692 -0.0527,0.10351 -0.005,0.0156 -0.01,0.0317 -0.0176,0.0469 -0.003,0.006 9.1e-4,-0.0151 0.004,-0.0215 0.005,-0.009 0.009,-0.0169 0.0137,-0.0254 0.003,-0.008 0.005,-0.0158 0.008,-0.0234 -0.79442,0.63156 -0.25276,0.40782 -0.17188,0.31836 0.034,-0.0376 0.0747,-0.17177 0.0898,-0.12305 0.0208,0.0737 -0.0436,0.14632 -0.0625,0.2207 -0.0113,0.0442 -0.0122,0.0921 -0.0273,0.13477 -0.031,0.0828 -0.0735,0.16022 -0.11132,0.24023 -0.09,0.13792 -0.11773,0.11311 -0.0762,0.25 0.031,0.10211 0.0401,0.19216 0.0371,0.27344 0.086,-0.0703 0.17051,-0.12283 0.25,-0.14063 0.39202,-0.0877 0.6469,0.40322 0.23438,0.94532 -0.0454,0.0599 -0.0872,0.12318 -0.13672,0.17968 -0.0673,0.0767 -0.14568,0.14549 -0.21484,0.22071 -0.0567,0.0614 -0.0995,0.13249 -0.1543,0.19531 -0.32772,0.37523 0.008,-0.0366 -0.32422,0.38086 -0.20867,0.19978 -0.30226,0.48211 -0.47461,0.70703 -0.0397,0.052 -0.0858,0.0992 -0.12891,0.14844 -0.11866,0.12392 -0.13452,0.29013 -0.19726,0.4375 -0.0265,0.0622 -0.0557,0.12233 -0.0859,0.18359 0.11906,-0.13752 -0.11196,0.28743 -0.13086,0.32031 -0.46328,0.75333 -0.47838,-1.25808 -0.73242,-0.5664 -0.003,0.0239 0.004,0.0111 -0.0234,0.11328 -0.008,0.0231 -0.002,-0.0493 0.004,-0.0723 0.007,-0.0228 0.0127,-0.0223 0.0195,-0.041 0.008,-0.0601 -0.0129,-0.0245 0.0723,-0.2168 -0.004,0.0192 -0.0173,0.0771 -0.01,0.0586 0.0782,-0.23451 0.1472,-0.45932 0.28516,-0.66992 0.0385,-0.0592 0.0842,-0.11349 0.12695,-0.16992 0.0862,-0.0778 0.12117,-0.16629 0.18164,-0.26758 0.1124,-0.18871 0.23724,-0.37276 0.38086,-0.53906 0.52611,-0.65105 -0.02,0.012 0.32617,-0.38281 0.0934,-0.10651 0.1167,-0.15692 0.21875,-0.26758 0.0389,-0.0423 0.0833,-0.078 0.12305,-0.11914 -0.24759,0.0156 -0.52627,-0.17501 -0.5586,-0.61523 -0.0208,-0.28608 0.004,-0.57335 0.19336,-0.80469 0,0.0102 0.005,0.0391 0.008,0.0293 0.0642,-0.21234 0.0857,-0.40616 0.18554,-0.61132 0.002,-0.006 0.002,-0.0118 0.004,-0.0176 0.0488,-0.17281 0.1746,-0.33417 0.25586,-0.49219 -0.008,0.021 -0.0291,0.0833 -0.0215,0.0625 0.0104,-0.0245 0.0217,-0.0484 0.0332,-0.0723 -0.0109,-0.004 -0.0142,-0.008 -0.0254,-0.0117 -0.003,0.0175 -0.007,0.0177 -0.01,0.0391 9.2e-4,-0.0136 0.003,-0.0273 0.004,-0.041 -0.004,-0.002 -0.005,-0.002 -0.01,-0.004 -0.25587,-0.0949 -0.16859,-0.0819 0.0137,-0.0391 0.002,-0.028 0.002,-0.0564 0.008,-0.084 0.0102,-0.0561 0.12173,-0.52043 0.1875,-0.51953 0.014,-0.0386 0.0222,-0.0801 0.0449,-0.11524 0.009,-0.0117 -0.002,0.0543 0.002,0.041 0.0197,-0.0631 0.0221,-0.13062 0.041,-0.19336 0.11146,-0.36212 0.0169,0.13226 0.11328,-0.27344 0.01,-0.0205 0.0112,-0.0166 0.0176,-0.0293 -0.0221,-0.19298 -0.01,-0.3462 0.12695,-0.52344 0.082,-0.0668 0.10648,-0.18017 0.13672,-0.27734 0.0771,-0.254 0.171,-0.49867 0.23828,-0.75586 0.0204,-0.0843 0.10453,-0.44692 0.13477,-0.52735 0.16252,-0.43982 0.0352,-0.06 0.17773,-0.30273 0.0779,-0.13249 0.11625,-0.25036 0.16992,-0.39258 0.1605,-0.42484 0.45869,-0.59136 0.67969,-0.54492 z m 16.26367,3.28515 c 0.75224,-0.0782 -0.38451,0.6774 -0.27148,0.8711 0.009,0.008 0.0184,0.0254 0.0273,0.0351 0.0395,0.0157 0.0985,0.0202 0.20117,0.01 l 0.10742,-0.0137 c 0.005,-0.002 0.009,-0.004 0.0137,-0.006 0.0113,-0.005 0.0238,-0.0183 0.0351,-0.0156 0.008,0.002 -0.0157,0.0115 -0.0195,0.0176 l -0.0293,0.004 c -0.0773,0.0328 -0.15447,0.0651 -0.23242,0.0957 0.0272,0.0368 0.0471,0.0446 0.0781,0.0937 0.0264,0.0445 0.002,0.10552 0.004,0.1582 0.002,0.0682 -0.009,0.0987 -0.0176,0.13672 0.0612,0.005 0.1223,0.0112 0.18359,0.0156 0.16842,0.0126 0.33714,0.022 0.50586,0.0254 0.0129,-0.0353 0.014,-0.0275 0.0273,-0.0664 0.0113,-0.0322 0.0676,0.006 0.10156,0.008 0.0779,0.005 0.15495,0.006 0.23243,0.004 0.90633,-0.023 0.92404,0.90474 0.0156,0.91797 -0.0881,0.001 -0.12688,-3.6e-4 -0.18555,0 -0.004,0.0149 -0.005,0.0197 -0.01,0.0352 -0.0204,0.0701 -0.14385,0.0186 -0.2168,0.0176 -0.92862,-0.0125 -1.8508,-0.17713 -2.77734,-0.2207 h -0.002 c -0.77051,-0.0374 -0.83156,-0.7153 -0.27539,-0.87891 -0.11691,-0.0174 -0.23171,-0.0485 -0.35157,-0.0527 h -0.002 c -0.90593,-0.0333 -1.04359,-0.86999 -0.13672,-0.90625 0.26138,-0.0105 0.51757,0.0163 0.77148,0.0645 0.06,-0.0245 0.1165,-0.05 0.18946,-0.0664 0.35005,-0.0787 0.72926,-0.1702 1.08984,-0.125 0.031,-0.0145 0.0621,-0.0371 0.0898,-0.0449 0.14335,-0.0408 0.29834,-0.0172 0.44335,-0.006 0.0286,-0.0108 0.0616,-0.0209 0.0801,-0.0293 0.0571,-0.0256 0.11682,-0.0417 0.17578,-0.0625 0.0518,-0.005 0.1029,-0.0103 0.1543,-0.0156 z m -0.80859,0.97266 c -0.0602,0.0167 -0.10739,0.0295 -0.17578,0.0488 -0.002,0.0127 -0.003,0.0273 -0.004,0.043 0.007,-7.3e-4 0.0143,-0.003 0.0215,-0.002 0.007,8.6e-4 -0.0124,0.005 -0.0215,0.004 -0.002,0.0317 -0.0106,0.0414 -0.01,0.0859 0.005,0.0753 0.0164,0.11854 0.0332,0.1582 0.0488,0.005 0.0977,0.009 0.14648,0.0137 0.009,-0.0702 0.022,-0.14022 0.0273,-0.21093 -10e-4,-0.0406 0.002,-0.0811 0.004,-0.1211 -0.007,-0.005 -0.0139,-0.0121 -0.0215,-0.0195 z m -17.48438,0.15234 c -0.0209,0.006 -0.0294,0.0343 -0.0391,0.0899 0.0173,0.004 0.0197,0.006 0.0352,0.01 0.0132,-0.0278 0.028,-0.0551 0.0391,-0.084 -0.005,-1.4e-4 -0.0315,-0.0168 -0.0352,-0.0156 z m 17.50586,0.11133 c -0.007,0.0298 -0.0181,0.0586 -0.0273,0.0879 0.01,9.2e-4 0.0196,5.2e-4 0.0293,0.002 -8.8e-4,-0.03 6e-4,-0.0596 -0.002,-0.0899 z m 0.29688,0.0215 c -0.005,0.0319 -0.016,0.062 -0.0215,0.0937 0.0507,0.005 0.10161,0.007 0.15235,0.0117 -0.0451,-0.0396 -0.0821,-0.0553 -0.13086,-0.10547 z m 74.74609,11.4375 c 1.4619,-0.0947 2.54065,1.27958 2.13672,3.20312 1.46301,1.54809 1.14014,2.46091 -0.44531,4.10352 -1.68146,1.67444 -3.48979,3.19784 -5.21289,4.82422 -0.11158,0.18565 -0.24713,0.32119 -0.4043,0.39257 -0.44739,0.44658 -0.87589,0.91217 -1.33984,1.3418 -0.14489,0.13417 -0.30023,0.25697 -0.44922,0.38672 -0.007,0.0495 -0.0125,0.0991 -0.0215,0.14844 -0.0809,0.45219 -0.13769,0.53617 -0.30664,0.97656 -0.20258,0.63168 -0.40848,1.26211 -0.69531,1.85937 0.35187,0.17772 0.51558,0.28885 -0.0332,0.14258 -1.92239,-0.51043 -1.90366,0.11316 -1.67969,-0.9375 0.44489,0.21119 1.23284,0.55678 1.70117,0.79297 0.24302,-0.83698 0.15849,-0.28734 -1.63867,-0.86328 -0.0165,-0.005 -0.0171,-0.004 -0.0293,-0.008 0.0113,-0.0253 0.0266,-0.0528 0.0391,-0.0762 0.004,-0.008 0.0276,-0.003 0.0312,-0.0117 0.005,-0.0121 0.007,-0.025 0.0117,-0.0371 -0.0567,0.0345 -0.12364,0.0664 -0.18164,0.0996 0.0445,0.0123 0.0248,0.001 0.0957,0.0234 -0.0113,0.0223 -0.0276,0.0428 -0.0352,0.0645 -6.9e-4,0.003 -0.002,0.006 -0.002,0.008 -0.0648,-0.0309 -0.0716,-0.0394 -0.11524,-0.0625 -0.26908,0.15078 -0.56221,0.29801 -1.02344,0.49414 -0.10722,0.0456 -0.28714,0.16251 -0.40625,0.20117 -0.18509,0.14378 -0.3747,0.23821 -0.86132,0.50196 -3.76808,-2.09916 -4.95546,-1.15688 -2.10547,-4.65625 -0.0296,-0.015 -0.0583,-0.0319 -0.0879,-0.0469 -0.19926,0.16125 -0.65081,0.78762 -0.51172,0.57227 0.40699,-0.62948 0.9126,-1.13469 1.44922,-1.61133 -0.48799,-0.0155 -0.97521,-0.0277 -1.46289,-0.0742 -1.1644,-0.18914 -2.25291,-0.36944 -3.36328,-0.77148 -0.19437,-0.0704 -0.48861,-0.10034 -0.54493,-0.29688 -0.0629,-0.0133 -0.12641,-0.0244 -0.18945,-0.0371 -0.2315,-0.058 -0.4647,-0.10583 -0.69336,-0.17383 -0.12661,-0.0376 -0.23994,-0.1267 -0.37109,-0.14258 -0.62102,-0.0746 -1.66247,0.4627 -1.8711,-0.12695 -1.9062,-5.387 -0.23011,-4.99859 2.85157,-5.60547 1.48255,-0.1265 2.95929,-0.30665 4.44336,-0.41406 0.93814,-0.0679 1.88276,-0.0565 2.82031,-0.13477 1.52991,-0.12772 3.05894,-0.38677 4.58398,-0.57031 0.37988,-0.30841 0.69859,-0.71182 1.13867,-0.92578 0.65134,-0.31666 1.24963,-0.4331 1.86524,-0.42578 0.0356,-0.0515 0.0741,-0.10059 0.10937,-0.15234 0.905,-1.3263 1.92179,-1.91741 2.80469,-1.97461 z m -96.07031,2.86132 c 0.21876,-0.0419 0.50538,0.1316 0.65429,0.56055 0.11906,0.34575 0.0102,0.76645 0.10352,1.10547 0.005,0.0179 0.0806,0.1509 0.0957,0.17773 -0.0359,-0.0457 -0.0696,-0.091 -0.10742,-0.13671 -0.19418,-0.24609 -0.2342,-0.12156 -0.24609,0.0762 0.0325,0.004 0.0651,0.006 0.0977,0.01 0.21268,0.0486 0.40094,0.16423 0.60352,0.24024 0.15194,0.057 0.1559,0.026 0.30859,0.11328 0.0563,0.0321 0.10567,0.0753 0.15821,0.11328 0.73553,0.53292 -1.41527,0.17886 -0.64258,0.65625 0.0367,0.0228 0.0754,0.0412 0.10937,0.0684 0.0193,0.0155 -0.0437,-0.0249 -0.0664,-0.0332 -0.0756,-0.0275 -0.15488,-0.0459 -0.23047,-0.0742 -0.74842,-0.28245 0.0733,0.0171 -0.3418,-0.1543 -0.0359,-0.0147 -0.0735,-0.025 -0.11133,-0.0371 0.0174,-0.011 0.0755,-0.0245 0.0566,-0.0332 -0.0276,-0.0117 -0.0596,0.0139 -0.0898,0.0195 -0.0654,0.0125 -0.12879,0.0291 -0.19531,0.0332 -0.18667,0.0115 -0.37163,-0.0185 -0.55078,-0.0684 -0.0926,-0.0258 -0.18078,-0.0667 -0.27149,-0.0996 -0.74733,-0.27056 -0.56578,-0.92388 0.0703,-0.89648 0.0909,0.004 0.19075,0.0219 0.29883,0.0566 0.0427,0.0138 0.0927,0.0316 0.14063,0.0488 -0.0654,-0.33308 0.003,-0.67748 -0.0898,-1.00781 -0.12364,-0.437 0.0273,-0.69633 0.2461,-0.73829 z m 5.24219,7.33594 c 0.0904,-0.002 0.19255,0.008 0.30273,0.0352 0.36019,0.0895 0.7623,0.23165 0.86133,0.63867 0.006,0.0287 0.01,0.0583 0.0137,0.0879 0.0705,0.003 0.073,0.005 0.01,0.008 v 0.002 c 0.0836,0.19462 0.0519,0.2113 0.0918,0.41211 0.0261,0.1324 0.0727,0.25749 0.0937,0.39257 0.0378,0.0589 0.0482,0.12955 0.0645,0.19727 1.143,-0.0855 3.16399,-0.13582 3.89257,-0.17383 0.12849,-0.007 0.25638,-0.0227 0.38477,-0.0312 0.0346,-0.015 0.0599,-0.0349 0.0996,-0.0469 0.43249,-0.13059 0.8767,-0.15524 1.32812,-0.14844 9.9e-4,0.003 0.003,0.005 0.004,0.008 0.0493,-0.0208 0.096,-0.034 0.13086,-0.0332 0.0316,7.5e-4 0.054,0.014 0.0625,0.0508 0.0231,0.10103 0.004,0.2013 -0.0254,0.30078 0.11275,0.19652 0.21624,0.39281 0.17969,0.60352 -0.0305,0.17578 -0.34971,0.0721 -0.52735,0.0898 -0.47335,0.0475 -0.75181,0.0557 -1.08984,0.0781 -0.0472,0.01 -0.0886,0.01 -0.13086,0.01 -0.79476,0.0489 -1.49535,0.0701 -2.75391,0.11914 -0.54424,0.0212 -1.08931,0.0364 -1.63281,0.0723 0.15475,0.78454 -0.52867,1.25969 -0.74609,0.42968 -0.0286,-0.1095 -0.10501,-0.19439 -0.17774,-0.28125 -0.63625,0.003 -0.89832,-0.51196 -0.24414,-0.77539 -0.0214,-0.22633 -0.0215,-0.45633 -0.0176,-0.68554 0.002,-0.13204 0.007,-0.26428 0.01,-0.39649 -0.0614,-0.021 -0.12808,-0.0454 -0.17383,-0.0586 -0.76367,-0.22063 -0.63883,-0.88754 -0.01,-0.9043 z m 1.1875,0.77149 c -0.003,1.7e-4 -0.006,-1.7e-4 -0.01,0 0.003,0.0256 0.008,0.0509 0.0117,0.0762 -8e-5,-0.0254 -0.0118,-0.0947 -0.002,-0.0762 z m 106.33984,93.91796 c 0.5818,-0.0596 1.30131,0.97203 3.1543,3.66407 0.0623,-0.17187 0.12918,-0.33505 0.21093,-0.45703 -0.23501,0.73255 -0.17342,0.54747 -0.16406,0.52148 0.0143,0.0207 0.0227,0.0338 0.0371,0.0547 0.061,0.0886 -0.14371,0.42015 -0.39258,0.77929 -0.14323,0.47551 -0.25249,1.20689 -0.32422,1.4629 -0.18714,0.66974 -0.47666,1.345 -0.75976,2 0.41653,1.02015 0.1079,2.45948 -1.31836,3.6875 -0.0222,0.46878 0.012,0.94201 0.0137,1.4121 0.004,1.20892 0.0232,2.41626 0.0156,3.625 -0.0752,1.30855 -0.16285,2.62258 0.084,3.92383 0.0835,0.81151 0.29932,2.22591 0.0762,3.02539 -0.63239,2.26027 -1.96289,3.33776 -4.2207,3.60157 -0.74941,-0.25883 -1.65096,-0.25382 -2.24805,-0.77539 -1.13023,-0.98744 -0.90883,-2.43444 -0.92773,-3.69922 0.002,-0.26166 0.008,-0.52346 0.0117,-0.78516 -0.45427,0.37682 -0.76321,0.33447 -0.70703,-0.74414 0.0157,-0.28431 -0.0214,-1.29544 0.18164,-1.71875 -0.25734,-0.30186 -0.54411,-0.65736 -0.89454,-1.08984 -0.88073,0.90993 -1.50266,1.2277 -1.24609,-0.58789 0.035,-0.24745 0.0705,-0.49475 0.10547,-0.74219 -0.109,-0.12069 -0.19322,-0.22434 -0.31055,-0.34961 -0.0385,-0.0408 0.0969,-0.0597 0.13086,-0.10547 0.0698,-0.0983 0.13353,-0.20098 0.20117,-0.30078 0.0408,-0.0766 0.041,-0.0753 0.11524,-0.21875 -0.003,0.0195 -0.005,0.0391 -0.008,0.0586 0.18997,-0.28511 0.38078,-0.5701 0.57031,-0.85547 0.5037,-0.7584 1.00491,-1.51841 1.50781,-2.27734 0.17549,-0.2904 0.21177,-0.3521 0.35742,-0.5918 7.4e-4,-0.52941 0.0732,-1.06111 0.21094,-1.56445 0.20641,-0.75407 1.02774,-1.42926 1.89063,-2.01758 0.2815,-0.506 0.49519,-0.86981 0.9414,-1.70898 0.17431,-0.32757 0.34819,-0.65537 0.48047,-1.00196 0.0786,-0.20606 -0.0591,-0.57165 0.14844,-0.64648 0.0743,-0.0266 0.1147,0.10165 0.14062,0.23828 0.006,-0.0136 0.01,-0.0274 0.0156,-0.041 -0.0301,-0.39098 -0.0972,-0.77959 -0.14063,-1.16993 0.15073,-0.45312 0.25697,-0.92405 0.45313,-1.35937 0.11614,-0.25769 0.30648,-0.47554 0.47656,-0.70117 0.15384,-0.2042 0.27552,-0.32503 0.39062,-0.42578 0.0704,-0.15124 0.12368,-0.28523 0.1543,-0.34766 0.75129,-1.02951 1.14099,-1.72589 1.58594,-1.77149 z m -9.3125,17.15821 c 0.4409,0.48816 0.81635,0.92987 1.14062,1.33008 0.19773,-0.20428 0.41536,-0.45106 0.63282,-0.69922 -0.3616,-0.58776 -0.73668,-1.16381 -1.22071,-1.64649 -0.12161,-0.12115 -0.29653,0.0516 -0.44336,0.23047 -0.037,0.26166 -0.0724,0.52349 -0.10937,0.78516 z m 2.11719,2.50781 c -0.0321,0.11646 0.007,-0.004 0.004,0.004 -10e-4,-0.002 -0.003,-0.002 -0.004,-0.004 z" />
    <g
       aria-label="1"
       transform="matrix(2.3622997,0,0,4.6081178,-429.39734,-467.20957)"
       id="text9306-7-7-7"
       style="font-style:normal;font-variant:normal;font-weight:bold;font-stretch:normal;font-size:68.4015px;line-height:0.79;font-family:'Source Code Pro';-inkscape-font-specification:'Source Code Pro Bold';text-align:start;letter-spacing:0px;text-anchor:start;display:inline;fill:#ecfefe;fill-opacity:1;stroke:none;stroke-width:1.71003"
       inkscape:export-xdpi="91.663246"
       inkscape:export-ydpi="91.663246">
      <path
         id="path1112"
         style="font-style:normal;font-variant:normal;font-weight:bold;font-stretch:normal;font-family:'Source Code Pro';-inkscape-font-specification:'Source Code Pro Bold';text-align:start;text-anchor:start;fill:#ecfefe;fill-opacity:1;stroke-width:21.3241;filter:url(#filter1805)"
         d="M 630.94702,2.0158899 C 592.86913,64.734508 532.49187,172.55617 495.13477,235.71484 c 46.42904,-6.7e-4 92.85807,-0.001 139.28711,-0.002 l 10e-6,470.25345 -104.67107,0.42432 c -0.0801,45.8418 0.0793,58.21876 -8.2e-4,104.06056 105.31641,0.10742 229.14591,0.21485 334.46232,0.32227 39.53786,-38.11732 64.74784,-53.02944 82.66419,-104.89548 -64.47997,0.0491 -142.85205,0.36967 -207.33159,0.0883 -0.472,-192.17579 1.97013,-472.36394 1.49813,-664.539729 C 717.88715,22.033384 709.94342,29.227043 682.85635,17.078366 666.05713,11.946141 648.05382,6.1864249 630.94702,2.0158899 Z"
         transform="matrix(0.11200244,0,0,0.05741679,177.29077,103.11089)"
         sodipodi:nodetypes="cccccccccccc" />
    </g>
    <g
       aria-label="A"
       transform="matrix(2.3623841,0,0,4.3987616,-416.90937,-435.94964)"
       id="text9306-7-7-9"
       style="font-style:normal;font-variant:normal;font-weight:bold;font-stretch:normal;font-size:68.4015px;line-height:0.79;font-family:'Source Code Pro';-inkscape-font-specification:'Source Code Pro Bold';text-align:start;letter-spacing:-14.3027px;text-anchor:start;display:inline;fill:#ecfefe;fill-opacity:1;stroke:none;stroke-width:1.71003;stroke-opacity:1"
       inkscape:export-xdpi="91.663246"
       inkscape:export-ydpi="91.663246">
      <path
         id="path1115"
         style="font-style:normal;font-variant:normal;font-weight:bold;font-stretch:normal;font-family:'Source Code Pro';-inkscape-font-specification:'Source Code Pro Bold';text-align:start;text-anchor:start;fill:#ecfefe;fill-opacity:1;stroke:none;stroke-width:1.71003;stroke-opacity:1"
         d="m 239.11447,117.09338 c -4.6216,0.0241 -9.24319,0.0542 -13.86488,0.0426 -11.88732,10.89764 -20.88467,19.67209 -32.77159,30.57016 2.63048,1.83688 5.1774,3.7979 7.99989,5.30654 6.18285,-5.52356 12.11442,-11.31459 18.19199,-16.95283 7.80373,-0.0125 13.4249,0.008 21.22863,-0.004 0.0237,-2.74349 0.0253,-3.56821 -0.009,-6.30996 -4.87968,0.002 -9.75936,-0.0491 -14.63903,-0.0159 4.53864,-4.10681 9.2109,-8.42968 13.64313,-12.42967 0.0737,-0.069 0.14732,-0.13793 0.22098,-0.20689 z m -1.78543,10.45471 -0.004,9.4e-4 z"
         sodipodi:nodetypes="cccccccccccccc" />
    </g>
  </g>
</svg>
