<?xml version="1.0" encoding="UTF-8" standalone="no"?>
<svg
   width="235"
   height="43"
   fill="none"
   version="1.1"
   id="svg8"
   sodipodi:docname="logo_oracleAlura-es.svg"
   inkscape:version="1.2.1 (9c6d41e410, 2022-07-14)"
   xmlns:inkscape="http://www.inkscape.org/namespaces/inkscape"
   xmlns:sodipodi="http://sodipodi.sourceforge.net/DTD/sodipodi-0.dtd"
   xmlns="http://www.w3.org/2000/svg"
   xmlns:svg="http://www.w3.org/2000/svg">
  <defs
     id="defs12" />
  <sodipodi:namedview
     id="namedview10"
     pagecolor="#ffffff"
     bordercolor="#000000"
     borderopacity="0.25"
     inkscape:showpageshadow="2"
     inkscape:pageopacity="0.0"
     inkscape:pagecheckerboard="0"
     inkscape:deskcolor="#d1d1d1"
     showgrid="false"
     inkscape:zoom="4.987234"
     inkscape:cx="117.5"
     inkscape:cy="21.454778"
     inkscape:window-width="1366"
     inkscape:window-height="699"
     inkscape:window-x="0"
     inkscape:window-y="0"
     inkscape:window-maximized="1"
     inkscape:current-layer="svg8" />
  <path
     fill-rule="evenodd"
     clip-rule="evenodd"
     d="M58.292 28.945h8.923l-4.713-7.584-8.653 13.71-3.944.004 10.533-16.466a2.46 2.46 0 0 1 2.058-1.072c.828 0 1.588.39 2.037 1.043l10.57 16.495-3.946-.004-1.85-3.064h-9.043l-1.972-3.061ZM99.23 32.01v-14.3h-3.346v15.699c0 .434.177.85.487 1.16.328.323.76.503 1.226.503h15.248l1.967-3.06H99.229Zm-55.321-2.56a5.876 5.876 0 0 0 5.878-5.87 5.876 5.876 0 0 0-5.878-5.871H29.274V35.07h3.343v-14.3h11.06a2.811 2.811 0 1 1 0 5.622l-9.423-.003 9.98 8.683h4.858l-6.716-5.624 1.532.003ZM8.695 35.071c-4.8 0-8.695-3.884-8.695-8.68 0-4.795 3.894-8.682 8.695-8.682h10.107c4.801 0 8.694 3.887 8.694 8.682 0 4.797-3.893 8.684-8.694 8.684L8.695 35.07Zm9.883-3.06a5.623 5.623 0 0 0 5.628-5.62 5.624 5.624 0 0 0-5.628-5.621l-9.658-.001a5.626 5.626 0 0 0-5.63 5.622c0 3.106 2.52 5.62 5.63 5.62h9.658Zm63.5 3.06c-4.8 0-8.696-3.884-8.696-8.68 0-4.795 3.896-8.682 8.696-8.682h12.01l-1.967 3.06h-9.817a5.627 5.627 0 0 0-5.632 5.622 5.626 5.626 0 0 0 5.632 5.62H94.36l-1.964 3.06H82.078Zm40.906-3.06a5.627 5.627 0 0 1-5.415-4.084h14.294l1.968-3.06-16.266-.002a5.63 5.63 0 0 1 5.419-4.096h9.81l1.971-3.06h-12.011c-4.799 0-8.694 3.887-8.694 8.682 0 4.796 3.895 8.68 8.694 8.68h10.318l1.966-3.06h-12.054Z"
     fill="#363C41"
     id="path2" />
  <path
     stroke="#363C41"
     stroke-width="2"
     d="M153.574 20.168v12.276m-6.261-6.261h12.277"
     id="path4" />
  <path
     d="M188.573 0h2.855c.15 0 .27.12.27.27v28.614c0 .15-.12.27-.27.27h-2.855c-.15 0-.27-.12-.27-.27V.27c0-.15.12-.27.27-.27Zm19.653 23.54v.72c0 .33-.06.751-.18 1.292-.091.51-.361 1.08-.842 1.591-.451.51-1.112.99-2.043 1.411-.932.36-2.164.57-3.787.57-1.622 0-2.854-.21-3.786-.57-.931-.36-1.562-.84-2.043-1.411-.451-.51-.751-1.08-.842-1.621-.09-.54-.18-.961-.18-1.261V7.957c0-.15.12-.27.271-.27h2.854a.27.27 0 0 1 .271.27V23.21c0 .51.06.87.15 1.14.06.3.21.571.421.811.21.27.541.48.991.66.421.181 1.022.271 1.773.271.782 0 1.413-.09 1.863-.27.451-.18.812-.36 1.022-.63.24-.24.391-.511.481-.811.06-.3.18-.51.18-1.231V7.957c0-.15.12-.27.271-.27h2.854a.27.27 0 0 1 .271.27l.03 15.583Zm9.736-15.823h1.923c.18 0 .301.18.24.33l-.661 2.492c-.03.12-.15.21-.24.21h-1.352c-.721 0-1.292.09-1.743.3-.421.21-.811.39-1.022.66-.21.271-.36.511-.451.812-.06.3-.09.54-.09.81v15.584c0 .15-.12.27-.27.27h-2.885c-.15 0-.27-.12-.27-.27V12.61c0-.3.06-.72.18-1.261.09-.54.361-1.081.841-1.622.451-.51 1.112-.99 2.044-1.41.901-.421 2.163-.601 3.756-.601Zm-39.305 0c2.314 0 4.057.45 5.138 1.38 1.082.931 1.623 2.072 1.623 3.454v11.71c0 .48-.09.99-.27 1.56a3.649 3.649 0 0 1-.992 1.562c-.511.48-1.202.87-2.073 1.201-.872.33-2.014.48-3.426.48-1.412 0-2.554-.18-3.426-.48-.871-.3-1.562-.72-2.073-1.2-.511-.481-.842-.992-.992-1.562-.18-.54-.3-1.081-.3-1.561v-1.862c0-.99.27-1.922.781-2.762.541-.811 1.262-1.412 2.194-1.742.48-.18.991-.33 1.622-.54.601-.21 1.202-.39 1.773-.63.571-.211 1.052-.361 1.503-.511.42-.18.691-.24.811-.3.09-.06.24-.12.391-.21.18-.09.33-.24.511-.391.18-.21.3-.39.39-.63.12-.24.181-.511.181-.841v-.75c0-.271-.061-.511-.181-.812-.09-.3-.3-.51-.541-.78-.24-.24-.631-.42-1.051-.57-.421-.15-.962-.21-1.653-.21-1.322 0-2.194.27-2.705.81-.39.48-.661 1.05-.691 1.711 0 .15-.12.24-.27.24h-2.795c-.15 0-.27-.12-.27-.27v-.69c0-.66.12-1.292.36-1.862.241-.63.661-1.14 1.232-1.591a5.65 5.65 0 0 1 2.134-1.021c.841-.18 1.863-.33 3.065-.33Zm3.426 10.539c-.06.27-.211.45-.391.6-.21.15-.391.21-.601.3-.391.15-.841.3-1.292.45-.451.18-.902.33-1.292.451-.481.18-.962.33-1.353.48-.33.15-.631.33-.931.54-.24.211-.451.481-.661.812-.211.36-.301.75-.301 1.26 0 .991.241 1.742.722 2.252.48.48 1.382.751 2.674.751 1.322 0 2.224-.27 2.734-.78.481-.51.722-1.262.722-2.192l-.03-4.924Zm46.156-10.54c2.314 0 4.057.45 5.138 1.382 1.082.93 1.623 2.071 1.623 3.453v11.71c0 .48-.09.99-.27 1.56a3.649 3.649 0 0 1-.992 1.562c-.481.45-1.202.87-2.073 1.201-.872.33-2.014.48-3.426.48-1.412 0-2.554-.18-3.426-.48-.871-.3-1.562-.72-2.073-1.2-.511-.481-.842-.992-.992-1.562-.18-.57-.27-1.111-.27-1.561v-1.862c0-.99.27-1.922.781-2.762a4.219 4.219 0 0 1 2.194-1.742c.48-.18.991-.33 1.622-.54.601-.21 1.202-.39 1.773-.63.571-.211 1.052-.361 1.503-.511.42-.18.691-.24.811-.3.09-.06.24-.12.391-.21.18-.09.33-.24.511-.391.18-.21.3-.39.39-.63.12-.24.18-.511.18-.841v-.75c0-.271-.06-.511-.18-.812-.09-.3-.3-.51-.541-.78-.27-.24-.631-.42-1.051-.57-.421-.15-.962-.21-1.653-.21-1.322 0-2.194.27-2.705.81-.39.48-.661 1.05-.691 1.711 0 .15-.12.24-.27.24h-2.885c-.15 0-.27-.12-.27-.27v-.69c0-.66.12-1.292.36-1.862.241-.57.661-1.11 1.232-1.561a5.65 5.65 0 0 1 2.134-1.021c.901-.21 1.923-.36 3.125-.36Zm3.395 10.54c-.06.27-.21.45-.39.6-.211.15-.391.21-.601.3-.391.15-.842.3-1.292.45-.451.18-.902.33-1.292.451-.481.18-.962.33-1.353.48-.33.15-.631.33-.931.54-.241.211-.451.481-.661.812-.211.33-.301.75-.301 1.26 0 .991.241 1.742.721 2.252.481.48 1.383.751 2.675.751 1.322 0 2.224-.27 2.734-.78.481-.51.722-1.262.722-2.192l-.031-4.924ZM192.9 33.477c0-.15.121-.27.271-.27h1.653c.15 0 .27.12.27.27v7.357h3.276c.15 0 .27.12.27.27v1.501c0 .15-.12.27-.27.27h-5.199a.27.27 0 0 1-.271-.27v-9.128Zm6.281 9.038 4.297-9.248c.03-.09.15-.15.24-.15h.151c.09 0 .18.06.24.15l4.297 9.248c.09.18-.03.36-.24.36h-1.533c-.24 0-.36-.09-.481-.33l-.48-1.08h-3.757l-.48 1.11a.51.51 0 0 1-.481.33h-1.503c-.27-.03-.36-.21-.27-.39Zm5.649-2.942-1.052-2.282-1.021 2.282h2.073Zm5.439-4.324h-1.983a.27.27 0 0 1-.271-.27v-1.502c0-.15.121-.27.271-.27h6.1c.15 0 .27.12.27.27v1.502c0 .15-.12.27-.27.27h-1.953v7.356c0 .15-.12.27-.271.27h-1.652a.27.27 0 0 1-.271-.27V35.25h.03Zm4.057 7.266 4.297-9.248c.03-.09.15-.15.24-.15h.151c.09 0 .18.06.24.15l4.297 9.248c.09.18-.03.36-.24.36h-1.533c-.24 0-.36-.09-.481-.33l-.48-1.08h-3.757l-.48 1.11a.52.52 0 0 1-.511.33h-1.503c-.21-.03-.33-.21-.24-.39Zm5.649-2.942-1.052-2.282-1.021 2.282h2.073Zm5.65-6.276c0-.12.15-.21.24-.21h.21c.06 0 .181.06.241.15l3.185 5.945h.03l3.185-5.945c.03-.09.181-.15.241-.15h.21c.12 0 .24.09.24.21l1.563 9.248c.03.18-.09.3-.27.3h-1.623c-.12 0-.241-.12-.271-.21l-.631-4.264h-.03l-2.313 4.444c-.031.09-.151.15-.241.15h-.24c-.09 0-.181-.06-.241-.15l-2.314-4.444h-.03l-.601 4.264c0 .12-.12.21-.27.21h-1.623c-.18 0-.3-.12-.27-.3l1.623-9.248Z"
     fill="#363C41"
     id="path6" />
  <path
     style="fill:#ffffff;stroke-width:0.200512"
     d="M 5.9274317,34.482452 C 3.6863034,33.676501 2.009407,32.146774 0.96276701,29.953502 -1.0803252,25.672128 0.79982817,20.701309 5.2617288,18.587748 l 1.3551654,-0.641929 6.7380978,-0.06209 c 6.401679,-0.05899 6.800409,-0.0411 7.986132,0.358343 2.400238,0.808582 4.077314,2.287243 5.169663,4.558037 1.831448,3.807247 0.543943,8.411012 -2.991259,10.695924 -2.085483,1.347912 -2.413384,1.393947 -9.870981,1.385811 -6.0643908,-0.0066 -6.7237535,-0.04072 -7.7211153,-0.399393 z M 21.077108,31.540087 c 1.329625,-0.711314 2.024844,-1.406712 2.617615,-2.618295 1.408923,-2.879734 0.171338,-6.376312 -2.741225,-7.74484 -0.843401,-0.396289 -1.285854,-0.427969 -6.777696,-0.485293 -6.8750542,-0.07176 -7.4069454,0.01428 -9.0126751,1.457971 -1.2844565,1.154836 -1.9048078,2.542615 -1.9048078,4.261216 0,2.544383 1.3960592,4.509393 3.8362513,5.399677 0.5537276,0.202023 2.1964078,0.253589 6.9412656,0.217894 5.9759,-0.04496 6.247736,-0.06381 7.041272,-0.48833 z"
     id="path450" />
  <path
     style="fill:#ffffff;stroke-width:0.200512"
     d="m 29.375,26.367321 v -8.521758 l 7.870094,0.002 c 7.846326,0.002 7.873161,0.0034 8.885766,0.474906 2.145723,0.999154 3.314022,2.643293 3.4595,4.868528 0.105014,1.606305 -0.3514,2.977284 -1.380317,4.146195 -1.128438,1.281973 -2.317174,1.804345 -4.398183,1.932714 l -1.704351,0.105135 3.240357,2.706911 3.240357,2.706912 -2.18311,0.05665 -2.18311,0.05665 -4.790731,-4.167147 -4.79073,-4.167147 5.072812,-0.100256 c 4.728071,-0.09344 5.111244,-0.128478 5.638346,-0.515533 1.302738,-0.956611 1.598448,-2.786447 0.662679,-4.100614 -0.811563,-1.139734 -1.185902,-1.1987 -7.609901,-1.1987 h -5.821287 v 7.118174 7.118174 H 30.979096 29.375 Z"
     id="path452" />
  <path
     style="fill:#ffffff;stroke-width:0.200512"
     d="M 50.346744,34.646183 C 51.48164,32.713691 60.748756,18.424281 61.03534,18.164927 c 0.584452,-0.528923 1.863454,-0.638369 2.5716,-0.220057 0.405127,0.239314 2.216648,2.884643 5.835631,8.521656 2.886471,4.496035 5.248129,8.230397 5.248129,8.298581 0,0.06818 -0.79191,0.123971 -1.759801,0.123971 h -1.7598 l -0.891662,-1.503839 -0.891663,-1.50384 h -4.54457 -4.544571 l -0.824445,-1.314908 c -0.453444,-0.723199 -0.824444,-1.354812 -0.824444,-1.403583 0,-0.04877 1.939953,-0.08868 4.311007,-0.08868 2.371054,0 4.311007,-0.05792 4.311007,-0.128722 0,-0.308923 -4.693951,-7.664124 -4.835335,-7.576743 -0.127373,0.07872 -2.488234,3.760629 -3.285399,5.123782 -0.110282,0.188582 -1.339036,2.13239 -2.730566,4.319575 l -2.530054,3.976699 -1.847701,0.05787 c -1.464079,0.04586 -1.816196,0.0042 -1.695959,-0.200512 z"
     id="path454" />
  <path
     style="fill:#ffffff;stroke-width:0.200512"
     d=""
     id="path456" />
  <path
     style="fill:#ffffff;stroke-width:0.200512"
     d="m 79.302474,34.478766 c -2.313454,-0.830394 -3.937728,-2.342471 -5.034935,-4.687147 -1.943223,-4.152572 0.0033,-9.129929 4.381562,-11.203871 l 1.355165,-0.641929 6.888275,-0.06222 c 3.788551,-0.03422 6.856384,0.0132 6.817406,0.105386 -0.03898,0.09218 -0.422057,0.729239 -0.851288,1.415677 l -0.78042,1.248069 h -5.248673 c -6.134479,0 -6.735142,0.108779 -8.282428,1.499921 -2.951699,2.653832 -2.459525,7.329494 0.97131,9.227468 l 1.087354,0.601536 6.769,0.100256 6.768999,0.100256 -0.908249,1.353456 -0.908248,1.353455 -5.961007,-0.0072 c -5.417929,-0.0066 -6.061479,-0.0433 -7.063823,-0.403079 z"
     id="path458" />
  <path
     style="fill:#ffffff;stroke-width:0.200512"
     d="m 96.518587,34.50592 -0.473365,-0.383159 -0.05665,-8.138599 -0.05665,-8.138599 h 1.610618 1.610618 v 7.11582 7.115819 l 7.721202,0.05248 7.72121,0.05248 -0.90802,1.353456 -0.90803,1.353455 h -7.89378 c -7.47228,0 -7.919063,-0.02046 -8.367152,-0.383158 z"
     id="path460" />
  <path
     style="fill:#ffffff;stroke-width:0.200512"
     d="m 120.06397,34.514842 c -5.90829,-2.041396 -7.79775,-9.492791 -3.5351,-13.941255 1.12461,-1.173632 2.11199,-1.799436 3.66406,-2.32229 1.14624,-0.386142 1.61823,-0.407986 7.74254,-0.358343 l 6.52188,0.05287 -0.85164,1.342271 -0.85164,1.34227 -5.62192,0.06131 c -5.2276,0.05701 -5.68618,0.09104 -6.53822,0.485213 -1.10052,0.509114 -2.21841,1.615628 -2.7812,2.752883 l -0.41245,0.833456 8.10679,0.100256 8.1068,0.100256 -0.92499,1.453712 -0.92499,1.453711 h -7.18476 -7.18477 l 0.31201,0.75192 c 0.4798,1.156258 1.30046,2.052376 2.50553,2.73589 l 1.09783,0.622685 6.74658,0.100256 6.74658,0.100256 -0.87842,1.353456 -0.87841,1.353455 -5.96842,-0.0065 c -5.21706,-0.0057 -6.10001,-0.05201 -7.01367,-0.367691 z"
     id="path462" />
  <path
     style="fill:#ffffff;stroke-width:0.200512"
     d="m 152.68985,29.675768 v -2.606655 h -2.60666 -2.60665 v -0.902304 -0.902304 h 2.60665 2.60666 v -2.506399 -2.5064 h 0.9023 0.9023 v 2.5064 2.506399 h 2.5064 2.5064 v 0.902304 0.902304 h -2.5064 -2.5064 v 2.606655 2.606655 h -0.9023 -0.9023 z"
     id="path464" />
  <path
     style="fill:#ffffff;stroke-width:0.200512"
     d="m 175.38879,28.503834 c -1.35218,-0.479699 -2.43783,-1.344933 -2.94852,-2.349906 -0.32545,-0.640459 -0.40102,-1.185897 -0.40102,-2.894542 0,-1.805358 0.0672,-2.241875 0.47168,-3.063259 0.66849,-1.357584 1.44997,-1.859841 4.58641,-2.947716 1.51903,-0.526876 3.09826,-1.098894 3.5094,-1.271152 1.4035,-0.588029 1.95559,-2.347057 1.22191,-3.893173 -0.50226,-1.058434 -1.71015,-1.532765 -3.59513,-1.411794 -2.01313,0.129195 -2.59398,0.572746 -3.16905,2.419955 -0.0966,0.310233 -0.31245,0.351624 -1.56861,0.300768 l -1.45661,-0.05897 -0.0635,-0.660048 c -0.10735,-1.116606 0.50418,-2.565316 1.41027,-3.3408886 1.29196,-1.1058722 2.46217,-1.4132494 5.37034,-1.4106159 2.27657,0.00206 2.60752,0.049892 3.60921,0.5216078 1.19136,0.5610352 2.04907,1.3201477 2.57515,2.2791217 0.28543,0.520309 0.34171,1.510312 0.39918,7.022086 0.0439,4.213271 -0.01,6.76452 -0.15609,7.430306 -0.29179,1.326761 -1.1448,2.333012 -2.57169,3.033699 -1.04663,0.513956 -1.37186,0.568912 -3.65525,0.617663 -2.03924,0.04354 -2.70429,-0.01669 -3.56812,-0.323141 z m 5.48429,-2.658601 c 1.06791,-0.507365 1.29136,-1.316267 1.29171,-4.676047 l 3.1e-4,-2.992503 -0.45115,0.406613 c -0.24813,0.223637 -1.41084,0.743892 -2.58379,1.156122 -1.17295,0.41223 -2.39828,0.911058 -2.72296,1.108506 -0.704,0.428133 -1.26171,1.51268 -1.25561,2.441765 0.004,0.560833 0.64058,2.368916 0.83797,2.378859 0.033,0.0017 0.42085,0.13857 0.86198,0.304243 0.95541,0.358824 3.1439,0.289408 4.02154,-0.127558 z"
     id="path466" />
  <path
     style="fill:#ffffff;stroke-width:0.200512"
     d="m 188.42978,14.587244 0.0515,-14.48698803 h 1.50384 1.50384 l 0.0514,14.48698803 0.0515,14.486988 h -1.60673 -1.60673 z"
     id="path468" />
  <path
     style="fill:#ffffff;stroke-width:0.200512"
     d="m 199.7099,28.947549 c -1.53732,-0.237595 -2.77021,-0.733593 -3.53023,-1.420227 -1.54355,-1.394502 -1.47552,-0.916647 -1.54238,-10.834703 l -0.0598,-8.8726531 h 1.6055 1.6055 l 0.0584,8.4085441 0.0584,8.408544 0.57859,0.603707 c 1.39139,1.451798 5.36272,1.145184 6.09905,-0.470888 0.17387,-0.381615 0.24002,-2.789847 0.24002,-8.738352 V 7.8199659 h 1.6041 1.60409 v 8.7800391 c 0,8.706466 -0.004,8.787536 -0.45115,9.674701 -0.49551,0.982631 -1.88066,2.045036 -3.12251,2.394951 -0.84857,0.239101 -3.85859,0.415288 -4.74758,0.277892 z"
     id="path470" />
  <path
     style="fill:#ffffff;stroke-width:0.200512"
     d="m 211.23933,20.641265 c 0,-5.505978 0.0771,-8.739239 0.2222,-9.315369 0.28363,-1.126413 1.32353,-2.2065233 2.75557,-2.8621346 0.91628,-0.4194886 1.49695,-0.5197797 3.48302,-0.6015757 l 2.38342,-0.098161 -0.14191,0.5793783 c -0.078,0.318658 -0.24455,0.9402998 -0.36999,1.3814261 l -0.22808,0.8020479 -1.53133,0.12514 c -1.80181,0.147244 -2.81646,0.667885 -3.14646,1.614525 -0.14337,0.411278 -0.21824,3.401819 -0.21824,8.716877 v 8.090813 h -1.6041 -1.6041 z"
     id="path472" />
  <path
     style="fill:#ffffff;stroke-width:0.200512"
     d="m 225.77645,28.747935 c -1.83372,-0.451902 -3.19473,-1.385996 -3.72689,-2.557849 -0.53266,-1.172956 -0.53427,-4.692378 -0.003,-5.838124 0.69146,-1.490276 1.45156,-1.986166 4.87423,-3.179957 3.52584,-1.229775 4.23823,-1.585971 4.55282,-2.276439 0.29157,-0.639911 0.27103,-2.243799 -0.0367,-2.864849 -0.62959,-1.270705 -3.51428,-1.823135 -5.29599,-1.014203 -0.71236,0.323428 -0.89295,0.534655 -1.20268,1.406719 l -0.36446,1.026145 -1.50422,-0.05767 -1.50423,-0.05767 -0.0679,-0.597911 c -0.0924,-0.812814 0.30426,-2.072117 0.90196,-2.8638426 1.05879,-1.4025026 3.68953,-2.1913167 6.64878,-1.9935998 2.96272,0.1979496 4.53028,1.0227293 5.36957,2.8252324 0.47241,1.014566 0.47776,1.098812 0.47859,7.542664 5.2e-4,3.981732 -0.0819,6.814648 -0.2119,7.28275 -0.29381,1.058089 -1.39231,2.204848 -2.644,2.760174 -0.88224,0.391415 -1.43739,0.473595 -3.45715,0.511772 -1.32338,0.02501 -2.58661,0.001 -2.80717,-0.05335 z m 4.20624,-2.752078 c 0.52509,-0.15827 0.9532,-0.471372 1.2532,-0.916547 0.42528,-0.63107 0.45566,-0.883756 0.45566,-3.789392 v -3.113235 l -0.45115,0.406613 c -0.24813,0.223637 -1.41084,0.743892 -2.58379,1.156122 -1.17295,0.41223 -2.39828,0.911058 -2.72296,1.108506 -0.6419,0.390365 -1.26068,1.491989 -1.2589,2.241253 0.002,0.645885 0.34256,1.819734 0.65134,2.242025 0.60052,0.821258 3.00052,1.16382 4.6566,0.664655 z"
     id="path474" />
  <path
     style="fill:#ffffff;stroke-width:0.200512"
     d=""
     id="path476" />
  <path
     style="fill:#ffffff;stroke-width:0.200512"
     d="m 228.08209,40.587173 c -0.68017,-1.27731 -1.28211,-2.276946 -1.33764,-2.221412 -0.0825,0.08247 -0.64973,3.668084 -0.66333,4.192899 -0.002,0.08271 -0.46484,0.150384 -1.0282,0.150384 -0.96129,0 -1.0175,-0.02775 -0.91382,-0.451152 0.0608,-0.248133 0.43793,-2.345989 0.83814,-4.661902 0.40022,-2.315913 0.8,-4.285029 0.8884,-4.375813 0.19243,-0.197617 0.55606,0.389917 2.24082,3.620633 0.70356,1.349156 1.32964,2.454478 1.39128,2.456271 0.0616,0.0018 0.8286,-1.34894 1.70435,-3.001628 0.87575,-1.652689 1.6979,-3.006144 1.82699,-3.007679 0.27047,-0.0032 0.25787,-0.0589 1.06579,4.70924 0.33635,1.985068 0.66221,3.857348 0.72414,4.160623 0.11107,0.543942 0.0988,0.551407 -0.90589,0.551407 -0.56017,0 -1.02011,-0.06767 -1.02209,-0.150384 -0.002,-0.08271 -0.13571,-1.007572 -0.29717,-2.055247 -0.16147,-1.047675 -0.2952,-1.977861 -0.29717,-2.067081 -0.0103,-0.464551 -0.52979,0.318217 -1.51529,2.283242 -0.60407,1.20449 -1.18029,2.189982 -1.28048,2.189982 -0.10019,0 -0.73866,-1.045072 -1.41883,-2.322383 z"
     id="path478" />
  <path
     style="fill:#ffffff;stroke-width:0.200512"
     d="m 214.55997,42.728772 c -0.1528,-0.247241 4.1208,-9.444475 4.3869,-9.441057 0.15437,0.002 3.81995,7.554829 4.49027,9.252096 0.0368,0.09308 -0.39062,0.169233 -0.94974,0.169233 -0.97227,0 -1.02935,-0.03058 -1.3098,-0.701791 l -0.29323,-0.701792 h -1.90994 -1.90995 l -0.3339,0.651664 c -0.18364,0.358415 -0.43409,0.717954 -0.55655,0.798977 -0.31534,0.208628 -1.48042,0.188901 -1.61406,-0.02733 z m 5.50189,-3.121946 c 0,-0.27942 -1.00511,-2.311082 -1.14191,-2.308182 -0.15358,0.0033 -1.06747,1.936138 -1.06493,2.252337 6.6e-4,0.08271 0.49748,0.150384 1.10402,0.150384 0.60655,0 1.10282,-0.04254 1.10282,-0.09454 z"
     id="path480" />
  <path
     style="fill:#ffffff;stroke-width:0.200512"
     d="m 210.39158,38.949445 -0.0546,-3.759599 -1.16397,-0.06046 -1.16396,-0.06046 0.0611,-0.841841 0.0612,-0.84184 h 3.20819 3.20819 v 0.802048 0.802047 l -1.10281,0.100256 -1.10282,0.100256 -0.0546,3.759599 -0.0546,3.759599 h -0.89346 -0.89345 z"
     id="path482" />
  <path
     style="fill:#ffffff;stroke-width:0.200512"
     d="m 199.48765,42.756102 c -0.27467,-0.182058 3.94262,-9.370863 4.30084,-9.370863 0.2086,0 4.44317,8.732527 4.44317,9.162702 0,0.08861 -0.4075,0.161103 -0.90555,0.161103 -0.83749,0 -0.9307,-0.05274 -1.24021,-0.701791 l -0.33466,-0.701792 h -1.94366 -1.94365 l -0.25234,0.609199 c -0.36156,0.872879 -1.43495,1.298124 -2.12394,0.841442 z m 5.3353,-3.22851 c 0,-0.34271 -0.85883,-2.23237 -1.01459,-2.23237 -0.13054,0 -1.19104,2.074735 -1.19104,2.330118 0,0.04181 0.49627,0.07603 1.10282,0.07603 0.60655,0 1.10281,-0.0782 1.10281,-0.173773 z"
     id="path484" />
  <path
     style="fill:#ffffff;stroke-width:0.200512"
     d="m 192.99275,37.997014 v -4.712031 h 1.00256 1.00256 v 3.80192 3.801921 l 1.75448,0.05793 1.75448,0.05794 0.0616,0.852176 0.0617,0.852175 h -2.8187 -2.81869 z"
     id="path486" />
</svg>
